HIERARCHY
ROOT Hips
{
	OFFSET 0.000000 0.000000 0.000000
	CHANNELS 6 Xposition Yposition Zposition Zrotation Yrotation Xrotation 
	JOINT LHipJoint
	{
		OFFSET 0.000000 0.000000 0.000000
		CHANNELS 3 Zrotation Yrotation Xrotation
		JOINT LeftUpLeg
		{
			OFFSET 1.363060 -1.794630 0.839290
			CHANNELS 3 Zrotation Yrotation Xrotation
			JOINT LeftLeg
			{
				OFFSET 2.448110 -6.726130 0.000000
				CHANNELS 3 Zrotation Yrotation Xrotation
				JOINT LeftFoot
				{
					OFFSET 2.562200 -7.039590 0.000000
					CHANNELS 3 Zrotation Yrotation Xrotation
					JOINT LeftToeBase
					{
						OFFSET 0.157640 -0.433110 2.322550
						CHANNELS 3 Zrotation Yrotation Xrotation
						End Site
						{
							OFFSET 0.000000 0.000000 0.000000
						}
					}
				}
			}
		}
	}
	JOINT RHipJoint
	{
		OFFSET 0.000000 0.000000 0.000000
		CHANNELS 3 Zrotation Yrotation Xrotation
		JOINT RightUpLeg
		{
			OFFSET -1.305520 -1.794630 0.839290
			CHANNELS 3 Zrotation Yrotation Xrotation
			JOINT RightLeg
			{
				OFFSET -2.542530 -6.985550 0.000000
				CHANNELS 3 Zrotation Yrotation Xrotation
				JOINT RightFoot
				{
					OFFSET -2.568260 -7.056230 0.000000
					CHANNELS 3 Zrotation Yrotation Xrotation
					JOINT RightToeBase
					{
						OFFSET -0.164730 -0.452590 2.363150
						CHANNELS 3 Zrotation Yrotation Xrotation
						End Site
						{
							OFFSET 0.000000 0.000000 0.000000
						}
					}
				}
			}
		}
	}
	JOINT LowerBack
	{
		OFFSET 0.000000 0.000000 0.000000
		CHANNELS 3 Zrotation Yrotation Xrotation
		JOINT Spine
		{
			OFFSET 0.028270 2.035590 -0.193380
			CHANNELS 3 Zrotation Yrotation Xrotation
			JOINT Spine1
			{
				OFFSET 0.056720 2.048850 -0.042750
				CHANNELS 3 Zrotation Yrotation Xrotation
				JOINT Neck
				{
					OFFSET 0.000000 0.000000 0.000000
					CHANNELS 3 Zrotation Yrotation Xrotation
					JOINT Neck1
					{
						OFFSET -0.054170 1.746240 0.172020
						CHANNELS 3 Zrotation Yrotation Xrotation
						JOINT Head
						{
							OFFSET 0.104070 1.761360 -0.123970
							CHANNELS 3 Zrotation Yrotation Xrotation
							End Site
							{
								OFFSET 0.000000 0.000000 0.000000
							}
						}
					}
				}
				JOINT LeftShoulder
				{
					OFFSET 0.000000 0.000000 0.000000
					CHANNELS 3 Zrotation Yrotation Xrotation
					JOINT LeftArm
					{
						OFFSET 3.362410 1.200890 -0.311210
						CHANNELS 3 Zrotation Yrotation Xrotation
						JOINT LeftForeArm
						{
							OFFSET 4.983000 -0.000000 -0.000000
							CHANNELS 3 Zrotation Yrotation Xrotation
							JOINT LeftHand
							{
								OFFSET 3.483560 -0.000000 -0.000000
								CHANNELS 3 Zrotation Yrotation Xrotation
								JOINT LeftFingerBase
								{
									OFFSET 0.000000 0.000000 0.000000
									CHANNELS 3 Zrotation Yrotation Xrotation
									JOINT LeftHandIndex1
									{
										OFFSET 0.715260 -0.000000 -0.000000
										CHANNELS 3 Zrotation Yrotation Xrotation
										End Site
										{
											OFFSET 0.000000 0.000000 0.000000
										}
									}
								}
								JOINT LThumb
								{
									OFFSET 0.000000 0.000000 0.000000
									CHANNELS 3 Zrotation Yrotation Xrotation
									End Site
									{
										OFFSET 0.000000 0.000000 0.000000
									}
								}
							}
						}
					}
				}
				JOINT RightShoulder
				{
					OFFSET 0.000000 0.000000 0.000000
					CHANNELS 3 Zrotation Yrotation Xrotation
					JOINT RightArm
					{
						OFFSET -3.136600 1.374050 -0.404650
						CHANNELS 3 Zrotation Yrotation Xrotation
						JOINT RightForeArm
						{
							OFFSET -5.241900 -0.000000 -0.000000
							CHANNELS 3 Zrotation Yrotation Xrotation
							JOINT RightHand
							{
								OFFSET -3.444170 -0.000000 -0.000000
								CHANNELS 3 Zrotation Yrotation Xrotation
								JOINT RightFingerBase
								{
									OFFSET 0.000000 0.000000 0.000000
									CHANNELS 3 Zrotation Yrotation Xrotation
									JOINT RightHandIndex1
									{
										OFFSET -0.622530 -0.000000 -0.000000
										CHANNELS 3 Zrotation Yrotation Xrotation
										End Site
										{
											OFFSET 0.000000 0.000000 0.000000
										}
									}
								}
								JOINT RThumb
								{
									OFFSET 0.000000 0.000000 0.000000
									CHANNELS 3 Zrotation Yrotation Xrotation
									End Site
									{
										OFFSET 0.000000 0.000000 0.000000
									}
								}
							}
						}
					}
				}
			}
		}
	}
}
MOTION
Frames: 5
Frame Time: 0.008333
10.178033 17.866509 21.946155 -178.738955 -3.104758 -151.409681 9.214250 1.185492 -1.830012 -21.661299 -19.076629 -18.849900 -1.420956 4.100771 8.610494 0.874174 0.193785 -16.883221 4.300300 -12.549700 -37.705400 -13.698063 -2.939847 -1.196699 30.871318 18.866233 -17.938047 1.422185 -3.571964 7.251474 -1.086807 -2.564614 -21.791279 -2.111000 9.093600 -26.088700 -2.435808 0.431659 -26.876404 1.954642 -1.202632 -6.346853 0.445434 -1.569476 11.205399 -12.327204 0.654389 -3.459275 13.119855 -1.959548 17.036215 3.271600 -0.298600 3.467300 15.402030 -1.400876 0.559518 -105.575412 -2.849186 13.708202 9.563317 -9.577773 -1.000127 -1.550751 1.431949 13.458429 19.510566 -10.166408 -4.321200 -7.125000 0.000000 0.000000 -4.046300 18.052700 2.599700 -10.546564 -0.328643 -0.066852 98.210053 -1.350863 1.286654 -9.301105 17.649476 -1.950912 1.232953 4.093339 9.244242 -10.699281 -50.045410 9.180000 7.125000 0.000000 0.000000 71.787300 -75.760600 -57.345400 
10.176500 17.865852 21.943417 -178.625445 -3.078236 -151.305595 9.231167 1.168442 -1.847423 -21.524184 -19.128317 -18.920096 -1.428467 4.113781 8.628443 0.895490 0.362601 -16.946955 4.238700 -12.471400 -37.420600 -13.715685 -2.914585 -1.164706 30.930912 19.202132 -18.001543 1.434440 -3.604307 7.273088 -1.070242 -2.843800 -21.745344 -2.012400 8.891900 -25.457800 -2.211716 0.509431 -27.034861 1.913532 -1.169675 -6.343221 0.204703 -1.557416 11.257805 -12.192794 0.629237 -3.459384 13.061581 -1.979389 16.936588 3.224000 -0.309400 3.425400 15.404577 -1.405121 0.564971 -105.427963 -2.881366 13.344628 9.502117 -9.492570 -0.984872 -1.546889 1.498341 13.740631 19.651292 -10.563927 -4.529500 -7.125000 0.000000 0.000000 -3.949600 17.558400 2.580300 -10.572004 -0.345596 -0.071564 98.342912 -1.444643 1.691719 -9.365175 17.771032 -1.974121 1.175149 4.072789 8.763582 -10.370782 -49.642044 8.847400 7.125000 0.000000 0.000000 70.237000 -75.530500 -55.641500 
10.176062 17.866509 21.938160 -178.577882 -3.114124 -151.372824 9.231402 1.182579 -1.850974 -21.526511 -18.985726 -18.847861 -1.422846 4.094285 8.610774 0.879295 0.253723 -16.868482 4.233100 -12.464300 -37.394900 -13.709865 -2.925484 -1.169153 31.031732 19.156615 -17.890108 1.433221 -3.591263 7.269529 -1.066586 -2.843569 -21.686087 -1.966800 8.796600 -25.161000 -2.060919 0.527249 -27.046553 1.877825 -1.169643 -6.324638 0.007349 -1.553342 11.309155 -12.075611 0.618169 -3.402539 13.005009 -1.992757 16.817480 3.178100 -0.319600 3.361000 15.411156 -1.410208 0.571555 -105.281417 -2.872464 13.110648 9.488065 -9.484971 -0.981752 -1.520794 1.508593 13.775871 19.479488 -10.691580 -4.539200 -7.125000 0.000000 0.000000 -4.090100 17.423200 2.684700 -10.597672 -0.364129 -0.071441 98.483476 -1.512642 2.057076 -9.424355 17.885350 -1.998336 1.143762 4.066110 8.436619 -10.271333 -49.538472 8.748301 7.125000 0.000000 0.000000 69.833400 -75.461700 -55.190400 
10.175514 17.866619 21.936080 -178.535138 -3.123111 -151.359565 9.235918 1.183796 -1.857074 -21.488433 -18.887266 -18.918899 -1.415952 4.117659 8.670319 0.864062 0.158502 -16.805543 4.304800 -12.555300 -37.726000 -13.700765 -2.927492 -1.168889 31.071634 19.106797 -17.944097 1.429817 -3.610333 7.310667 -1.077304 -2.714515 -21.762468 -1.963900 8.790500 -25.142300 -1.914372 0.545649 -27.131694 1.840589 -1.174184 -6.311090 -0.195988 -1.554664 11.377911 -11.954982 0.603530 -3.382022 12.942057 -2.000438 16.698883 3.130700 -0.326000 3.304800 15.417171 -1.413437 0.574340 -105.132746 -2.877762 13.036789 9.488486 -9.494372 -0.981836 -1.507109 1.504811 13.644626 19.353000 -10.747610 -4.528700 -7.125000 0.000000 0.000000 -4.192100 17.371700 2.756700 -10.618731 -0.378904 -0.068405 98.649466 -1.453650 2.054084 -9.397531 17.857751 -1.989345 1.133432 4.052454 8.444349 -10.121956 -49.389838 8.601800 7.125000 0.000000 0.000000 69.287100 -75.360400 -54.572500 
10.174419 17.867714 21.934875 -178.537653 -3.154138 -151.385691 9.241805 1.184220 -1.852093 -21.489520 -18.998340 -18.862586 -1.419294 4.124459 8.689832 0.878372 0.246897 -16.871420 4.287600 -12.533600 -37.646600 -13.688788 -2.931610 -1.178769 31.081524 19.030726 -17.908033 1.428614 -3.598596 7.297308 -1.083647 -2.672949 -21.802851 -2.025500 8.919100 -25.542500 -1.779021 0.552968 -27.159103 1.789901 -1.174552 -6.291059 -0.449228 -1.551530 11.434146 -11.852176 0.593223 -3.320992 12.886522 -2.012810 16.581130 3.092700 -0.337000 3.240400 15.424268 -1.433622 0.582657 -104.979206 -2.944267 12.722911 9.463145 -9.463034 -0.973639 -1.503295 1.520109 13.820318 19.396035 -10.802635 -4.564000 -7.125000 0.000000 0.000000 -4.161800 17.298600 2.743300 -10.667451 -0.386068 -0.075168 98.892005 -1.387622 2.320597 -9.614937 18.216740 -2.075011 1.140935 4.080551 8.906368 -9.799776 -50.273445 8.411100 7.125000 0.000000 0.000000 72.887800 -75.443100 -58.027600 
